<svg xmlns="http://www.w3.org/2000/svg" width="1020.39" height="309.29" viewBox="0 0 1020.39 309.29">
  <g>
    <path d="M161.23,111.23q20.88,0,35.64,6.68t22.3,18.15a46,46,0,0,1,7.53,25.78,63.32,63.32,0,0,1-.57,8.27H124.25a24.92,24.92,0,0,0,2.93,6.3q4.32,6.5,12.88,10.17t21.36,3.66q14.47,0,22.29-3.48A35.53,35.53,0,0,0,196,178.2h28.59q-2.82,7.91-10.25,15.52t-20.88,12.8q-13.45,5.16-32.64,5.17-20.7,0-35.46-6.68T103.1,187a46.91,46.91,0,0,1,0-51q7.52-11.37,22.39-18.06t35.74-6.68m-37.18,42.14h74.16a25.11,25.11,0,0,0-3.12-6.68,28.43,28.43,0,0,0-12.79-10.16q-8.48-3.66-21.07-3.67-12.79,0-21.26,3.67a28.43,28.43,0,0,0-12.79,10.16,25.14,25.14,0,0,0-3.13,6.68m37.18-44.12c-14.14,0-26.44,2.3-36.56,6.85s-18,10.91-23.23,18.78a48.94,48.94,0,0,0,0,53.17c5.2,7.87,13,14.19,23.13,18.77s22.27,6.85,36.28,6.85c13,0,24.2-1.78,33.35-5.3s16.46-8,21.59-13.26a45.69,45.69,0,0,0,10.7-16.24,2,2,0,0,0-1.87-2.65H196a2,2,0,0,0-1.48.66A33.8,33.8,0,0,1,182.9,185c-4.91,2.2-12.14,3.31-21.48,3.31-8.21,0-15.14-1.18-20.58-3.51a26.54,26.54,0,0,1-12-9.44,20.66,20.66,0,0,1-1.73-3.21h99a2,2,0,0,0,2-1.73,66.09,66.09,0,0,0,.58-8.53A48,48,0,0,0,220.82,135c-5.2-7.93-13-14.28-23.13-18.87s-22.33-6.85-36.46-6.85Zm-34.35,42.14a21.87,21.87,0,0,1,2-3.6,26.69,26.69,0,0,1,11.93-9.44c5.37-2.32,12.25-3.5,20.47-3.5s14.9,1.18,20.28,3.5a26.69,26.69,0,0,1,11.93,9.44,21.82,21.82,0,0,1,1.94,3.6Z" style="fill: #fff"/>
    <path d="M296.3,91.1v24.08h54.18v22.39H291.22a26.09,26.09,0,0,0-11.1,9.5q-4,6.1-4,15.71,0,11.85,6.49,18t19.67,6.11q13.35,0,19.94-5.26t6.58-14.49v-2.25h29.54v2.82q0,13.54-6,23.32t-18.62,15.25q-12.62,5.44-31.42,5.45-18.63,0-30.86-4.8t-18-13.26a33,33,0,0,1-5.84-19.19,33.45,33.45,0,0,1,4-16.27A33.9,33.9,0,0,1,262,146.41a35,35,0,0,1,14.39-5.83v-3H236.47V116.12h24.84c3.88,0,6.64-.81,8.27-2.45s2.45-4.38,2.45-8.27V91.1H296.3m0-2H272a2,2,0,0,0-2,2v14.3c0,3.28-.65,5.65-1.87,6.87s-3.55,1.87-6.87,1.87H236.47a2,2,0,0,0-2,2v21.45a2,2,0,0,0,2,2h35.4a36.48,36.48,0,0,0-11,5.23,35.55,35.55,0,0,0-15.24,29.65,35.1,35.1,0,0,0,6.18,20.31c4.09,5.95,10.47,10.66,19,14,8.33,3.27,19,4.93,31.58,4.93s23.59-1.89,32.2-5.61,15.31-9.18,19.53-16,6.31-15,6.31-24.37v-2.82a2,2,0,0,0-2-2H328.84a2,2,0,0,0-2,2v2.25c0,5.57-1.91,9.8-5.84,12.94s-10.3,4.83-18.7,4.83c-8.21,0-14.37-1.87-18.31-5.57s-5.86-9.22-5.86-16.52c0-6,1.22-10.91,3.64-14.63a24.12,24.12,0,0,1,9.88-8.59h58.81a2,2,0,0,0,2-2V115.18a2,2,0,0,0-2-2h-52.2V91.1a2,2,0,0,0-2-2Z" style="fill: #fff"/>
    <path d="M496.65,113.67v95.57H467.11l4.33-28.59h-3a46.22,46.22,0,0,1-8.65,16.84,36.11,36.11,0,0,1-15,10.63,57.24,57.24,0,0,1-21,3.57q-15.44,0-26.91-6.21a42.07,42.07,0,0,1-17.59-17.87q-6.11-11.67-6.11-27.84v-46.1H403V153c0,7.15,1.24,13.25,3.75,18.34a25.94,25.94,0,0,0,11,11.56A35.36,35.36,0,0,0,435,186.85q15.24,0,23.7-8.84t8.46-25V113.67h29.54m0-2H467.11a2,2,0,0,0-2,2V153c0,10.2-2.66,18.15-7.92,23.64s-12.71,8.23-22.26,8.23a33.65,33.65,0,0,1-16.27-3.71,24.08,24.08,0,0,1-10.18-10.7C406.15,165.69,405,159.81,405,153V113.67a2,2,0,0,0-2-2H373.24a2,2,0,0,0-2,2v46.1c0,11.06,2.13,20.73,6.33,28.76A44.15,44.15,0,0,0,396,207.22c7.9,4.28,17.27,6.45,27.85,6.45a59.74,59.74,0,0,0,21.7-3.7,38.34,38.34,0,0,0,15.76-11.22,46.7,46.7,0,0,0,7.26-12.38L465.15,209a2,2,0,0,0,.46,1.59,2,2,0,0,0,1.5.69h29.54a2,2,0,0,0,2-2V113.67a2,2,0,0,0-2-2Z" style="fill: #fff"/>
    <path d="M578.11,111.23q20.68,0,34.61,6t20.7,16.93q6.76,10.92,6.77,25.59v20.32c0,2.51.57,4.32,1.7,5.45a6.87,6.87,0,0,0,5.07,1.7,20.62,20.62,0,0,0,5.27-.76v23.14a41.33,41.33,0,0,1-13.17,2.07,31.38,31.38,0,0,1-12.79-2.35,17.26,17.26,0,0,1-7.9-6.59,17.89,17.89,0,0,1-2.64-9.69v-.75h-3.19v.57q0,4.71-5.46,8.93t-16.65,7.06q-11.19,2.82-27.55,2.82-22.57,0-33.3-7.8a24.85,24.85,0,0,1-10.73-21.17q0-13,10.73-20.79t33.3-7.81q16.35,0,27.09,2.92a101.24,101.24,0,0,1,21.25,8.56v-7a22.41,22.41,0,0,0-3.76-12.89A25.05,25.05,0,0,0,596.27,137q-7.44-3.21-18.54-3.2a52.91,52.91,0,0,0-16.55,2.25,29,29,0,0,0-10.54,5.74,17.49,17.49,0,0,0-5.07,7.81H516a37.3,37.3,0,0,1,8.28-19.47q6.95-8.56,20.41-13.73t33.39-5.18M574,191.56a91.9,91.9,0,0,0,20.6-2.07,85.31,85.31,0,0,0,16.65-5.64v-5.27A104,104,0,0,0,594,173.12a94.61,94.61,0,0,0-20-1.87q-14.29,0-19.66,2.72T549,181.4q0,4.89,5.36,7.53T574,191.56m4.14-82.31c-13.49,0-25,1.78-34.11,5.3s-16.41,8.39-21.23,14.34a39.45,39.45,0,0,0-8.71,20.48,2,2,0,0,0,2,2.22h29.54a2,2,0,0,0,1.9-1.41,15.53,15.53,0,0,1,4.52-6.92,27.07,27.07,0,0,1,9.82-5.31,51,51,0,0,1,15.92-2.16c7.1,0,13.07,1,17.75,3a23.31,23.31,0,0,1,10.34,8,20.52,20.52,0,0,1,3.42,11.77v3.7a103,103,0,0,0-18.75-7.22c-7.29-2-16.58-3-27.61-3-15.41,0-27,2.75-34.47,8.19-7.66,5.57-11.54,13.11-11.54,22.39a26.82,26.82,0,0,0,11.54,22.77c7.45,5.43,19.05,8.18,34.47,8.18,11,0,20.47-1,28-2.88,7.81-2,13.49-4.39,17.38-7.41A16,16,0,0,0,614,196.2a18.69,18.69,0,0,0,11.51,15,33.31,33.31,0,0,0,13.59,2.52,43.54,43.54,0,0,0,13.8-2.17,2,2,0,0,0,1.35-1.88V186.48a2,2,0,0,0-.77-1.58,2.05,2.05,0,0,0-1.21-.41,2.24,2.24,0,0,0-.51.07,18.48,18.48,0,0,1-4.76.69,5,5,0,0,1-3.66-1.11c-.93-.93-1.13-2.71-1.13-4V159.77c0-10.1-2.37-19.07-7.06-26.63s-12-13.55-21.6-17.71-21.39-6.18-35.4-6.18ZM574,189.58c-9.18,0-15.5-.82-18.79-2.43-3.8-1.87-4.24-4.18-4.24-5.75s.44-3.71,4.27-5.66c3.28-1.67,9.59-2.51,18.76-2.51a93.37,93.37,0,0,1,19.61,1.83,100.81,100.81,0,0,1,15.66,4.86v2.65a84.83,84.83,0,0,1-15.12,5,90.24,90.24,0,0,1-20.15,2Z" style="fill: #fff"/>
    <path d="M736.88,111.23q14.86,0,25.21,5.64a37.3,37.3,0,0,1,15.81,16.74q5.46,11.12,5.46,27.66V165H753.25v-1.32A29.83,29.83,0,0,0,750,149.33a21.3,21.3,0,0,0-9.68-9.22,35.14,35.14,0,0,0-15.44-3.1q-13.35,0-20.69,7.61t-7.33,22.29v42.33H667.1V113.67h29.72L692.68,140h3.2A42.07,42.07,0,0,1,704,124.5a34.69,34.69,0,0,1,13.83-9.89,50.73,50.73,0,0,1,19.09-3.38m0-2a52.59,52.59,0,0,0-19.83,3.53,36.86,36.86,0,0,0-14.61,10.44,42.81,42.81,0,0,0-7,11.88L698.78,114a2,2,0,0,0-.45-1.6,2,2,0,0,0-1.51-.69H667.1a2,2,0,0,0-2,2v95.57a2,2,0,0,0,2,2h29.72a2,2,0,0,0,2-2V166.91c0-9.2,2.28-16.24,6.78-20.91s11-7,19.26-7a33.46,33.46,0,0,1,14.57,2.9,19.22,19.22,0,0,1,8.8,8.38,28,28,0,0,1,3.06,13.45V165a2,2,0,0,0,2,2h30.11a2,2,0,0,0,2-2v-3.77c0-11.28-1.9-20.88-5.66-28.53A39.4,39.4,0,0,0,763,115.13c-7.16-3.9-16-5.88-26.16-5.88Z" style="fill: #fff"/>
    <path d="M859.35,111.23q20.88,0,35.65,6.68t22.29,18.15a46,46,0,0,1,7.53,25.78,63.32,63.32,0,0,1-.57,8.27H822.37a24.92,24.92,0,0,0,2.93,6.3q4.32,6.5,12.88,10.17t21.36,3.66q14.48,0,22.29-3.48a35.53,35.53,0,0,0,12.32-8.56h28.59q-2.82,7.91-10.25,15.52t-20.88,12.8q-13.46,5.16-32.64,5.17-20.7,0-35.46-6.68T801.22,187a46.91,46.91,0,0,1,0-51q7.51-11.37,22.39-18.06t35.74-6.68m-37.17,42.14h74.15a25.11,25.11,0,0,0-3.12-6.68,28.43,28.43,0,0,0-12.79-10.16q-8.48-3.66-21.07-3.67-12.79,0-21.26,3.67a28.43,28.43,0,0,0-12.79,10.16,24.8,24.8,0,0,0-3.12,6.68m37.17-44.12c-14.14,0-26.43,2.3-36.56,6.85s-18,10.91-23.23,18.78a48.94,48.94,0,0,0,0,53.17c5.2,7.87,13,14.19,23.13,18.77S845,213.67,859,213.67c13,0,24.2-1.78,33.35-5.3s16.46-8,21.59-13.26a45.69,45.69,0,0,0,10.7-16.24,2,2,0,0,0-1.87-2.65H894.15a2,2,0,0,0-1.48.66A33.8,33.8,0,0,1,881,185c-4.91,2.2-12.14,3.31-21.48,3.31-8.21,0-15.14-1.18-20.58-3.51a26.54,26.54,0,0,1-12-9.44,20.66,20.66,0,0,1-1.73-3.21h99a2,2,0,0,0,2-1.73,66.09,66.09,0,0,0,.58-8.53A48.07,48.07,0,0,0,918.94,135c-5.2-7.93-13-14.28-23.13-18.87s-22.33-6.85-36.46-6.85ZM825,151.39a21.82,21.82,0,0,1,1.94-3.6,26.69,26.69,0,0,1,11.93-9.44c5.37-2.32,12.26-3.5,20.47-3.5s14.9,1.18,20.28,3.5a26.69,26.69,0,0,1,11.93,9.44,21.82,21.82,0,0,1,1.94,3.6Z" style="fill: #fff"/>
  </g>
</svg>
